<?xml version="1.0" standalone="no"?>
<!DOCTYPE svg PUBLIC "-//W3C//DTD SVG 20010904//EN"
 "http://www.w3.org/TR/2001/REC-SVG-20010904/DTD/svg10.dtd">
<svg version="1.0" xmlns="http://www.w3.org/2000/svg"
 width="2000.000000pt" height="2000.000000pt" viewBox="0 0 2000.000000 2000.000000"
 preserveAspectRatio="xMidYMid meet">
<metadata>
Created by potrace 1.14, written by Peter Selinger 2001-2017
</metadata>
<g transform="translate(0.000000,2000.000000) scale(0.100000,-0.100000)"
fill="#000000" stroke="none">
<path d="M6095 19707 c-44 -22 -87 -52 -115 -83 -70 -75 -153 -260 -185 -409
-38 -178 -44 -719 -10 -910 15 -85 56 -250 90 -358 8 -27 11 -47 7 -45 -4 2
-45 22 -92 45 -247 123 -436 85 -572 -114 -51 -74 -147 -293 -171 -388 -8 -33
-22 -87 -31 -121 -20 -80 -40 -358 -33 -456 8 -102 30 -174 83 -278 52 -101
159 -240 211 -274 21 -14 74 -54 118 -90 86 -71 211 -140 315 -176 65 -22 301
-53 503 -66 54 -3 96 -8 94 -10 -20 -21 -450 -173 -622 -220 -355 -99 -578
-123 -789 -85 -114 21 -123 24 -210 81 -167 109 -166 108 -275 259 -58 81
-134 120 -248 128 -64 5 -86 2 -113 -12 -92 -47 -139 -110 -140 -186 0 -37 35
-152 64 -208 41 -78 124 -146 286 -233 215 -115 273 -144 390 -193 184 -76
487 -177 578 -191 23 -4 45 -10 47 -14 3 -5 -23 -34 -57 -67 -79 -74 -165
-164 -319 -333 -284 -312 -566 -579 -744 -705 -370 -262 -596 -379 -1000 -517
-66 -23 -136 -45 -155 -49 -287 -59 -423 -74 -611 -66 -130 6 -141 8 -215 43
-73 33 -84 36 -150 31 -94 -7 -147 -34 -175 -89 -18 -35 -21 -54 -17 -122 7
-133 33 -167 203 -276 55 -35 111 -74 125 -86 14 -12 43 -31 65 -42 22 -11 49
-30 60 -42 11 -12 33 -29 50 -37 16 -9 53 -32 80 -53 134 -102 401 -239 695
-357 36 -14 67 -27 69 -29 6 -6 -27 -51 -71 -97 -24 -24 -56 -66 -73 -93 -16
-27 -48 -69 -71 -94 -23 -25 -63 -76 -90 -115 -26 -38 -73 -102 -104 -140 -30
-39 -64 -82 -75 -97 -27 -35 -102 -128 -123 -153 -10 -11 -25 -31 -35 -45 -45
-65 -223 -285 -296 -365 -30 -33 -69 -82 -87 -110 -18 -27 -59 -78 -91 -112
-32 -33 -67 -73 -78 -88 -11 -14 -47 -56 -79 -93 -88 -99 -96 -116 -96 -195 0
-71 8 -93 61 -172 47 -70 136 -128 216 -141 51 -8 144 17 195 53 41 28 68 40
173 73 33 11 72 24 87 29 16 5 28 7 28 4 0 -2 -34 -72 -75 -155 -67 -135 -115
-273 -115 -332 0 -18 -31 -86 -39 -86 -13 0 -142 -30 -216 -50 -44 -12 -114
-30 -155 -40 -121 -29 -444 -128 -575 -178 -85 -32 -337 -151 -392 -185 -28
-18 -96 -69 -152 -115 -95 -78 -103 -87 -142 -169 -38 -82 -41 -92 -35 -153 9
-116 22 -170 46 -203 14 -17 38 -52 55 -77 48 -70 284 -298 354 -341 14 -9 47
-36 72 -60 25 -24 61 -56 80 -72 19 -15 56 -45 82 -67 27 -22 52 -40 57 -40 5
0 26 -16 47 -36 21 -20 51 -43 68 -52 16 -8 48 -29 70 -47 22 -18 54 -40 70
-49 65 -36 122 -74 150 -100 17 -16 50 -39 75 -52 25 -14 72 -42 105 -64 33
-22 81 -51 108 -65 26 -14 47 -29 47 -33 0 -18 -93 -290 -122 -357 -56 -132
-147 -297 -203 -369 -105 -136 -303 -321 -429 -402 -29 -18 -129 -36 -296 -52
-101 -9 -124 -26 -166 -118 -29 -64 -34 -86 -34 -150 0 -169 108 -264 301
-264 87 0 100 5 171 61 49 38 101 59 298 122 271 86 341 114 569 223 51 25 94
44 96 42 6 -8 -15 -300 -24 -334 -6 -21 -18 -93 -27 -159 -44 -336 -163 -623
-368 -888 -257 -331 -488 -511 -843 -655 l-72 -29 -32 33 c-49 51 -121 77
-194 72 -63 -6 -127 -32 -158 -66 -58 -64 -74 -218 -32 -301 23 -47 133 -156
215 -215 55 -39 322 -216 401 -266 120 -75 582 -315 729 -378 27 -12 11 -13
-250 -16 -113 -1 -128 1 -155 20 -16 12 -50 31 -74 44 -59 30 -154 25 -226
-10 -43 -21 -55 -34 -82 -88 -39 -75 -41 -119 -13 -196 30 -78 69 -126 157
-194 43 -33 99 -79 125 -103 26 -24 65 -57 88 -74 22 -16 53 -40 68 -53 73
-61 165 -132 172 -132 5 0 26 -15 49 -33 134 -106 554 -372 687 -433 94 -44
258 -103 314 -114 279 -53 457 -54 658 -4 35 9 65 14 68 11 3 -2 -9 -46 -26
-97 -16 -51 -30 -98 -30 -104 0 -26 -129 -286 -167 -337 -61 -81 -73 -111 -73
-179 0 -126 73 -208 217 -246 115 -30 223 -4 275 66 12 16 30 32 40 36 11 3
32 18 48 32 15 15 54 45 86 67 170 118 387 358 484 537 11 21 23 38 27 38 3 0
32 -24 63 -52 32 -29 81 -69 110 -88 29 -19 72 -52 96 -72 25 -21 77 -58 117
-84 86 -55 235 -204 275 -277 32 -56 38 -81 52 -199 8 -68 7 -83 -10 -120 -11
-24 -20 -61 -20 -83 0 -87 89 -214 184 -262 46 -23 58 -25 155 -21 87 4 115 9
155 29 43 21 53 33 87 101 21 42 52 92 68 110 15 18 39 52 52 76 13 24 33 60
44 80 12 20 40 74 64 119 l42 82 58 -38 c32 -20 93 -52 137 -70 43 -18 109
-46 145 -62 36 -16 71 -29 78 -29 6 0 80 -22 164 -49 144 -47 201 -62 292 -82
22 -5 72 -16 110 -24 39 -9 106 -21 150 -26 44 -5 103 -14 130 -19 238 -46
1076 -56 1400 -16 72 9 167 20 212 25 134 14 193 65 193 168 0 30 -5 64 -11
75 -11 20 -9 21 22 14 130 -26 674 -36 873 -16 76 8 136 8 212 0 199 -20 743
-10 873 16 31 7 33 6 22 -14 -6 -11 -11 -45 -11 -75 0 -103 59 -154 193 -168
45 -5 141 -16 212 -25 324 -40 1162 -30 1400 16 28 5 86 14 130 19 44 5 112
17 150 26 39 8 88 19 110 24 91 20 148 35 292 82 84 27 158 49 164 49 7 0 42
13 78 29 36 16 102 44 145 62 44 18 105 50 137 70 l58 38 42 -82 c24 -45 52
-99 64 -119 11 -20 31 -56 44 -80 13 -24 37 -58 52 -76 16 -18 47 -68 68 -110
34 -68 44 -80 87 -101 40 -20 68 -25 155 -29 97 -4 109 -2 155 21 95 48 184
175 184 262 0 22 -9 59 -20 83 -17 37 -18 52 -10 120 14 118 20 143 52 199 40
73 189 222 275 277 40 26 92 63 117 84 24 20 67 53 96 72 29 19 78 59 110 88
31 28 60 52 63 52 4 0 16 -17 27 -38 97 -179 314 -419 484 -537 32 -22 71 -52
86 -67 16 -14 37 -29 48 -32 10 -4 28 -20 40 -36 52 -70 160 -96 275 -66 144
38 217 120 217 246 0 68 -12 98 -73 179 -38 51 -167 311 -167 337 0 6 -14 53
-30 104 -17 51 -29 95 -26 97 3 3 33 -2 68 -11 201 -50 379 -49 658 4 56 11
220 70 314 114 133 61 553 327 687 434 23 17 44 32 49 32 4 0 51 35 104 78 53
42 114 91 136 107 23 17 62 50 88 74 26 24 82 70 125 103 88 68 127 116 157
194 28 77 26 121 -12 196 -28 54 -40 67 -83 88 -72 35 -167 40 -226 10 -24
-13 -57 -32 -74 -44 -27 -19 -42 -21 -155 -20 -261 3 -277 4 -250 16 147 63
609 303 729 378 79 50 346 227 401 266 82 59 192 168 215 215 42 83 26 237
-32 301 -31 34 -95 60 -158 66 -73 5 -145 -21 -194 -72 l-32 -33 -72 29 c-303
123 -505 264 -708 495 -311 354 -450 644 -503 1048 -9 66 -21 138 -27 159 -9
34 -30 326 -24 334 2 2 45 -17 96 -42 228 -109 298 -137 569 -223 197 -63 249
-84 298 -122 71 -56 84 -61 171 -61 193 0 301 95 301 264 0 64 -5 86 -34 150
-42 92 -65 109 -166 118 -167 16 -267 34 -296 52 -126 81 -324 266 -429 402
-56 72 -147 237 -203 369 -27 63 -122 339 -122 355 0 3 33 25 73 49 169 99
478 305 618 411 32 25 80 61 106 80 26 19 97 77 157 128 61 52 128 108 149
125 138 116 313 302 362 387 11 18 24 93 31 181 6 65 5 70 -41 159 -48 92 -60
105 -188 198 -18 13 -41 31 -52 41 -50 44 -346 193 -450 226 -22 7 -67 23
-100 35 -33 12 -87 30 -120 40 -33 10 -100 30 -150 45 -82 25 -392 106 -475
125 -19 4 -50 11 -69 15 -35 8 -71 53 -71 89 0 62 -46 196 -115 334 -41 83
-75 153 -75 155 0 3 12 1 28 -4 15 -5 54 -18 87 -29 105 -33 132 -45 173 -73
51 -36 144 -61 195 -53 106 17 199 94 262 216 18 35 20 152 4 183 -13 24 -79
106 -119 148 -14 15 -34 39 -45 54 -11 15 -46 55 -78 88 -32 34 -73 85 -91
112 -18 28 -57 77 -87 110 -73 80 -251 300 -296 365 -10 14 -25 34 -35 45 -21
25 -96 118 -123 153 -11 15 -45 58 -75 97 -31 38 -78 102 -104 140 -27 39 -67
90 -90 115 -23 25 -55 67 -71 94 -17 27 -49 69 -73 93 -44 46 -77 91 -71 97 2
2 33 15 69 29 294 118 561 255 695 357 28 21 64 44 80 53 17 8 39 25 50 37 11
12 38 31 60 42 22 11 51 30 65 42 14 12 70 51 125 86 170 109 196 143 203 276
4 68 1 87 -17 122 -28 55 -81 82 -175 89 -66 5 -77 2 -150 -31 -74 -35 -85
-37 -215 -43 -188 -8 -324 7 -611 66 -37 8 -230 73 -345 116 -165 63 -432 197
-582 293 -124 80 -286 197 -383 276 -101 82 -416 396 -589 586 -154 169 -240
259 -319 333 -34 33 -60 62 -57 67 2 4 24 10 47 14 151 24 599 188 793 291
406 215 438 242 501 429 13 38 24 86 24 105 -1 76 -48 139 -140 186 -27 14
-49 17 -113 12 -114 -8 -190 -47 -248 -128 -109 -151 -108 -150 -275 -259 -87
-57 -96 -60 -210 -81 -211 -38 -434 -14 -789 85 -172 47 -602 199 -622 220 -2
2 40 7 94 10 203 13 438 44 503 66 130 45 247 113 359 208 31 26 69 56 84 65
43 28 153 173 201 267 81 158 96 256 77 514 -11 152 -18 188 -62 352 -28 107
-121 315 -172 386 -136 191 -324 226 -567 105 -47 -23 -88 -43 -92 -45 -4 -2
-1 18 7 45 33 107 75 273 90 358 34 193 28 729 -10 910 -32 152 -116 335 -187
411 -32 34 -71 62 -117 83 l-70 32 -163 -4 c-351 -8 -511 -88 -617 -310 -79
-168 -137 -395 -181 -717 -17 -131 -42 -301 -67 -473 l-6 -38 -32 31 c-55 54
-125 75 -245 75 -102 0 -126 -4 -290 -52 -70 -20 -237 -107 -343 -178 -101
-67 -250 -217 -306 -308 -80 -129 -137 -284 -161 -438 -13 -86 4 -311 30 -399
11 -36 33 -89 50 -118 l29 -54 -62 7 c-34 4 -80 11 -102 16 -22 5 -60 9 -85 9
-25 0 -81 7 -125 14 -102 17 -331 19 -655 6 l-255 -11 -85 -40 c-47 -22 -102
-52 -122 -66 l-38 -26 -37 26 c-21 14 -76 44 -123 66 l-85 40 -255 11 c-324
14 -541 12 -655 -5 -49 -8 -119 -16 -155 -20 -36 -3 -102 -11 -147 -18 -74
-12 -81 -11 -69 3 40 45 66 120 106 300 11 51 5 301 -8 328 -5 9 -14 44 -21
77 -14 65 -57 160 -137 300 -48 85 -151 203 -212 243 -13 9 -37 27 -52 40 -58
51 -263 162 -360 195 -146 49 -195 59 -295 64 -95 5 -103 3 -165 -24 -36 -17
-79 -42 -96 -56 l-31 -26 -11 62 c-6 34 -18 116 -27 182 -38 292 -48 357 -71
475 -13 69 -29 143 -35 165 -6 22 -14 60 -19 85 -9 50 -11 57 -47 150 -63 164
-124 253 -215 316 -83 58 -217 85 -448 91 l-165 4 -70 -34z m3340 -3108 c132
-5 254 -15 270 -22 64 -24 162 -88 173 -112 17 -37 69 -65 122 -65 53 0 105
28 122 65 11 24 109 88 173 112 50 20 508 35 680 23 182 -13 288 -24 380 -39
39 -7 122 -20 185 -31 178 -29 343 -60 360 -66 8 -3 60 -17 115 -31 83 -21
277 -82 473 -151 23 -8 42 -20 42 -26 0 -84 -193 -797 -239 -887 -11 -20 -32
-67 -47 -105 -97 -244 -264 -540 -424 -749 -90 -118 -141 -314 -110 -418 37
-125 72 -189 166 -308 71 -89 119 -166 138 -222 34 -102 63 -145 119 -177 49
-29 57 -30 142 -27 83 3 237 34 356 72 25 8 129 26 230 40 343 47 495 77 554
108 44 23 98 74 122 115 21 35 24 49 18 85 -13 73 -7 194 14 295 57 278 71
455 72 922 0 386 11 725 22 736 4 4 44 -8 89 -26 238 -93 449 -162 628 -204
206 -49 286 -59 490 -64 l205 -4 -80 -29 c-82 -31 -187 -61 -285 -84 -79 -19
-198 -53 -248 -71 -49 -18 -72 -54 -72 -111 0 -37 31 -103 49 -103 5 0 42 -33
83 -72 41 -40 104 -102 141 -137 37 -35 67 -67 67 -72 0 -5 10 -14 23 -20 12
-6 34 -26 49 -46 35 -45 243 -269 417 -448 184 -188 335 -321 484 -425 43 -30
105 -74 137 -97 201 -144 485 -290 780 -401 124 -47 261 -92 310 -102 243 -52
300 -60 455 -69 94 -5 231 -6 305 -2 125 7 140 10 200 40 87 44 53 13 -75 -69
-55 -35 -111 -74 -125 -86 -14 -12 -41 -30 -60 -39 -19 -10 -51 -31 -70 -47
-109 -92 -446 -287 -597 -347 -26 -10 -86 -34 -133 -53 -47 -20 -114 -45 -150
-57 -36 -12 -78 -27 -93 -33 -61 -23 -77 -126 -31 -194 40 -59 165 -214 173
-214 4 0 15 -15 26 -32 10 -18 41 -62 69 -98 48 -63 55 -72 93 -116 10 -11 34
-42 53 -70 42 -60 146 -195 192 -249 37 -43 144 -183 167 -218 8 -12 31 -40
51 -62 21 -22 71 -83 113 -135 41 -52 91 -113 112 -135 20 -22 49 -58 63 -80
34 -50 94 -125 152 -189 25 -27 67 -73 94 -103 44 -48 49 -57 40 -80 -5 -14
-23 -36 -40 -49 l-30 -24 -58 36 c-31 20 -72 40 -89 45 -18 4 -59 18 -92 30
-169 61 -384 94 -446 68 -39 -16 -59 -56 -59 -119 0 -43 9 -68 52 -148 65
-123 118 -230 118 -240 0 -5 13 -29 30 -55 28 -45 70 -188 70 -241 0 -14 6
-40 14 -58 8 -18 20 -48 27 -66 7 -19 22 -40 34 -48 23 -15 126 -47 200 -63
92 -20 408 -104 510 -135 60 -19 139 -43 175 -55 178 -55 388 -147 490 -214
52 -35 71 -48 172 -125 61 -47 90 -107 79 -166 -13 -73 -120 -192 -331 -370
-30 -26 -77 -66 -105 -90 -166 -144 -330 -267 -560 -419 -137 -92 -185 -122
-348 -222 -125 -77 -134 -84 -147 -115 -13 -31 -9 -120 9 -185 15 -59 105
-310 139 -390 56 -133 164 -327 227 -409 126 -162 335 -353 484 -442 66 -39
79 -42 319 -70 45 -6 55 -11 68 -36 18 -35 12 -46 -33 -65 -34 -14 -37 -13
-72 15 -47 37 -118 73 -201 100 -300 98 -470 157 -509 177 -25 13 -73 35 -106
49 -133 55 -274 125 -324 159 -39 27 -64 37 -93 37 -86 0 -124 -48 -115 -147
2 -32 10 -123 17 -203 32 -384 75 -642 148 -890 22 -76 131 -318 166 -370 14
-19 39 -60 58 -90 57 -95 283 -365 390 -466 97 -92 302 -233 410 -282 35 -16
97 -45 138 -65 135 -65 204 -87 270 -87 74 0 93 9 146 69 41 45 41 45 49 21 7
-22 0 -32 -56 -83 -66 -61 -79 -71 -214 -162 -44 -29 -91 -63 -105 -73 -138
-106 -706 -409 -920 -490 -105 -40 -298 -92 -340 -92 -39 0 -101 -33 -115 -61
-19 -36 -19 -92 0 -129 15 -29 46 -44 155 -73 154 -41 410 -61 706 -55 222 4
228 5 296 60 15 12 31 19 34 15 16 -15 -19 -59 -93 -115 -43 -33 -100 -79
-126 -103 -26 -24 -66 -57 -88 -74 -21 -16 -70 -54 -107 -83 -128 -101 -106
-86 -359 -258 -297 -202 -429 -276 -616 -345 -275 -102 -587 -93 -837 25 -91
43 -174 29 -200 -33 -7 -17 -10 -52 -7 -83 5 -55 57 -270 81 -335 8 -21 24
-72 37 -113 26 -84 146 -325 191 -383 35 -44 28 -61 -28 -70 -31 -5 -41 -2
-69 26 -44 42 -90 78 -161 126 -33 22 -80 59 -105 83 -26 24 -62 57 -80 73
-19 17 -56 57 -84 89 -27 32 -65 75 -83 95 -18 20 -46 59 -63 86 -107 179
-148 239 -172 252 -30 17 -102 16 -137 -2 -15 -8 -38 -27 -49 -42 -31 -38
-161 -152 -221 -193 -29 -19 -72 -52 -96 -72 -25 -21 -77 -58 -117 -84 -127
-81 -295 -267 -342 -379 -48 -113 -74 -383 -43 -450 10 -23 8 -29 -22 -60 -55
-57 -111 -46 -144 29 -13 28 -38 71 -57 96 -47 61 -92 138 -182 311 -82 157
-94 169 -168 169 -42 0 -149 -48 -218 -98 -21 -15 -64 -39 -97 -53 -150 -68
-202 -89 -214 -89 -7 0 -58 -16 -114 -35 -198 -68 -393 -113 -661 -154 -228
-35 -398 -45 -795 -45 -375 -1 -448 3 -661 36 l-77 12 61 46 c76 56 107 100
107 152 0 109 -69 138 -230 98 -25 -7 -74 -15 -110 -19 -36 -5 -119 -16 -185
-26 -99 -15 -178 -18 -445 -16 -405 2 -515 2 -920 0 -267 -2 -346 1 -445 16
-66 10 -149 21 -185 26 -36 4 -85 12 -110 19 -161 40 -230 11 -230 -98 0 -52
31 -96 107 -152 l61 -46 -77 -12 c-213 -33 -286 -37 -661 -36 -397 0 -567 10
-795 45 -268 41 -463 86 -661 154 -56 19 -107 35 -114 35 -12 0 -64 21 -214
89 -33 14 -76 38 -97 53 -69 50 -176 98 -218 98 -74 0 -86 -12 -168 -169 -90
-173 -135 -250 -182 -311 -19 -25 -44 -68 -57 -96 -33 -75 -89 -86 -144 -29
-30 31 -32 37 -22 60 31 67 5 337 -43 450 -47 112 -215 298 -342 379 -40 26
-92 63 -117 84 -24 20 -67 53 -96 72 -60 41 -190 155 -221 193 -29 38 -70 57
-121 57 -76 -1 -85 -11 -237 -265 -17 -27 -45 -66 -63 -86 -18 -20 -55 -63
-83 -95 -27 -32 -65 -72 -84 -89 -18 -16 -54 -49 -80 -73 -25 -24 -72 -61
-105 -83 -71 -48 -117 -84 -161 -126 -28 -28 -38 -31 -69 -26 -56 9 -63 26
-28 70 45 58 165 299 191 383 13 41 29 92 37 113 24 65 76 280 81 335 3 31 0
66 -7 83 -26 62 -109 76 -200 33 -250 -118 -562 -127 -837 -25 -187 69 -319
143 -616 345 -253 172 -231 157 -359 258 -37 29 -86 67 -107 83 -22 17 -62 50
-88 74 -26 24 -83 70 -126 103 -74 56 -109 100 -93 115 3 4 19 -3 34 -15 68
-55 74 -56 296 -60 448 -9 819 46 861 128 19 37 19 93 0 129 -14 28 -76 61
-115 61 -42 0 -235 52 -340 92 -214 81 -782 384 -920 490 -14 10 -61 44 -105
73 -135 91 -148 101 -214 162 -56 51 -63 61 -56 83 8 24 8 24 49 -21 53 -60
72 -69 146 -69 66 0 135 22 270 87 41 20 103 49 138 65 108 49 313 190 410
282 107 101 333 371 390 466 19 30 44 71 58 90 35 52 144 294 166 370 73 248
116 506 148 890 7 80 15 171 17 203 9 99 -29 147 -115 147 -29 0 -54 -10 -93
-37 -50 -34 -191 -104 -324 -159 -33 -14 -81 -36 -106 -49 -39 -20 -209 -79
-509 -177 -83 -27 -154 -63 -201 -100 -35 -28 -38 -29 -72 -15 -45 19 -51 30
-33 65 13 25 23 30 68 36 240 28 253 31 319 70 81 48 147 100 261 204 144 131
222 225 306 367 99 166 144 264 223 490 61 172 70 204 76 278 9 103 4 108
-245 263 -35 21 -85 53 -112 69 -42 26 -96 62 -259 171 -24 16 -58 38 -76 49
-18 11 -50 36 -73 55 -22 19 -64 53 -93 75 -63 49 -186 152 -217 183 -12 12
-27 22 -32 22 -6 0 -26 15 -45 33 -19 17 -57 52 -85 77 -158 141 -244 248
-254 316 -7 54 18 111 61 139 15 10 55 41 88 70 80 68 119 92 255 155 154 71
246 106 445 165 50 15 125 38 167 51 43 13 108 31 145 39 38 8 102 24 143 36
41 11 95 25 120 30 50 10 139 35 183 52 36 13 71 92 87 194 15 100 41 184 71
231 16 25 29 49 29 54 0 10 53 117 118 240 43 80 52 105 52 148 0 63 -20 103
-59 119 -62 26 -277 -7 -446 -68 -33 -12 -74 -26 -92 -30 -17 -5 -58 -25 -89
-45 l-58 -36 -30 24 c-17 13 -35 35 -40 49 -9 23 -4 32 40 80 27 30 69 76 94
103 58 64 118 139 152 189 14 22 43 58 63 80 21 22 71 83 112 135 42 52 92
113 113 135 20 22 43 50 51 62 23 35 130 175 167 218 46 54 150 189 192 249
19 28 43 59 53 70 38 44 45 53 93 116 28 36 59 80 69 98 11 17 22 32 26 32 8
0 133 155 173 214 46 68 30 171 -31 194 -15 6 -57 21 -93 33 -36 12 -103 37
-150 57 -47 19 -107 43 -133 53 -151 60 -488 255 -597 347 -19 16 -51 37 -70
47 -19 9 -46 27 -60 39 -14 12 -70 51 -125 86 -128 82 -162 113 -75 69 60 -30
75 -33 200 -40 74 -4 212 -3 305 2 155 9 212 17 455 69 49 10 186 55 310 102
295 111 579 257 780 401 32 23 94 67 137 97 149 104 300 237 484 425 174 179
382 403 417 448 15 20 37 40 50 46 12 6 22 15 22 20 0 5 30 37 67 72 37 35
100 97 141 137 41 39 78 72 83 72 18 0 49 66 49 103 0 57 -23 93 -72 111 -50
18 -169 52 -248 71 -98 23 -203 53 -285 84 l-80 29 205 4 c204 5 284 15 490
64 179 42 390 111 628 204 45 18 85 30 89 26 11 -11 22 -351 22 -736 1 -458
15 -637 71 -920 25 -124 32 -198 31 -293 -2 -88 13 -126 59 -154 16 -9 30 -21
30 -25 0 -13 52 -35 136 -57 79 -20 175 -36 499 -81 82 -12 158 -26 168 -31
10 -6 50 -16 90 -24 40 -8 99 -22 132 -31 33 -10 101 -19 150 -21 86 -3 93 -2
144 28 49 28 56 37 96 123 60 129 114 216 185 300 69 82 130 192 130 236 0 10
7 34 15 53 8 20 15 57 15 82 0 25 -7 62 -15 82 -8 19 -15 44 -15 54 0 35 -76
169 -152 268 -20 27 -50 76 -67 109 -17 34 -37 64 -45 69 -7 4 -28 35 -45 68
-17 33 -45 80 -60 105 -16 25 -61 117 -100 205 -40 88 -81 178 -91 200 -11 22
-20 47 -20 55 -1 8 -17 60 -36 115 -35 98 -42 121 -70 238 -8 31 -20 83 -28
115 -8 31 -19 77 -25 102 -12 57 -39 173 -53 226 -19 78 -31 70 252 164 80 26
190 59 245 73 55 14 107 28 115 31 17 6 182 37 360 66 63 11 147 24 185 31
124 20 334 40 510 47 22 1 148 -3 280 -9z m-5243 -690 c13 -6 39 -33 58 -61
19 -27 55 -75 79 -105 48 -60 40 -60 -49 1 -86 58 -115 92 -134 154 -8 25 8
29 46 11z m11662 -11 c-19 -62 -48 -96 -134 -154 -89 -61 -97 -61 -49 -1 24
30 60 78 79 105 36 51 60 70 93 71 14 1 17 -4 11 -21z"/>
<path d="M8715 11551 c-16 -10 -48 -37 -70 -60 -21 -22 -45 -41 -52 -41 -7 0
-13 -4 -13 -8 0 -4 -23 -26 -52 -47 -29 -22 -73 -57 -98 -78 -25 -21 -56 -47
-70 -59 -14 -11 -45 -38 -70 -60 -25 -21 -69 -60 -99 -86 -30 -26 -102 -92
-160 -148 -162 -155 -339 -303 -493 -414 -76 -55 -142 -100 -145 -100 -3 0
-18 -11 -34 -24 -50 -42 -311 -201 -396 -241 -18 -8 -37 -24 -43 -35 -20 -37
-31 -329 -32 -799 0 -384 3 -475 14 -482 11 -8 11 -11 -1 -18 -12 -8 -13 -72
-8 -423 4 -227 12 -487 17 -578 6 -91 13 -207 16 -259 l6 -93 21 21 c21 20 22
31 23 239 0 119 3 231 7 247 10 49 18 359 22 865 4 423 9 543 38 905 3 28 7
66 11 85 3 19 8 58 10 85 2 28 7 62 11 77 4 17 1 38 -8 58 l-16 30 39 20 c21
11 42 24 45 30 4 6 10 8 15 5 5 -3 11 -1 15 5 3 5 23 17 43 27 46 22 358 223
431 277 29 23 63 48 75 56 90 62 283 236 544 491 190 187 285 269 298 256 5
-4 2 -15 -55 -189 -18 -54 -40 -126 -51 -160 -10 -35 -29 -94 -43 -133 -33
-92 -60 -250 -60 -344 0 -60 6 -90 28 -146 75 -181 232 -235 376 -129 62 45
109 105 109 137 0 14 4 28 9 32 6 3 31 36 57 73 40 58 144 163 288 292 22 19
55 51 75 71 59 58 203 191 246 227 59 49 281 267 347 341 68 76 111 156 106
196 l-3 29 -64 -59 c-36 -33 -81 -76 -101 -95 -19 -19 -73 -69 -119 -110 -248
-222 -841 -816 -841 -842 0 -4 -8 -13 -17 -20 -10 -7 -29 -29 -43 -48 -13 -19
-28 -39 -32 -45 -5 -5 -19 -30 -31 -55 l-22 -45 -72 -3 -73 -3 -46 43 c-25 23
-59 69 -76 102 -42 83 -35 136 37 251 13 22 24 50 25 62 0 12 11 46 23 76 13
29 27 70 31 92 12 63 64 212 97 277 5 10 9 25 9 33 0 8 4 23 9 33 6 9 17 46
26 82 9 36 23 90 31 120 18 72 27 150 17 150 -5 0 -21 -9 -38 -19z m295 -991
c0 -5 -4 -10 -10 -10 -5 0 -10 5 -10 10 0 6 5 10 10 10 6 0 10 -4 10 -10z"/>
<path d="M10010 11542 c0 -43 43 -120 108 -193 66 -74 288 -292 347 -341 43
-36 187 -169 246 -227 20 -20 53 -52 75 -71 144 -129 248 -234 288 -292 26
-37 51 -70 57 -73 5 -4 9 -18 9 -32 0 -32 47 -92 109 -137 144 -106 301 -52
376 129 22 56 28 86 28 146 0 94 -27 252 -60 344 -14 39 -33 98 -43 133 -11
34 -33 106 -51 160 -57 174 -60 185 -55 189 13 13 108 -69 298 -256 261 -255
454 -429 544 -491 12 -8 46 -33 75 -56 73 -54 385 -255 431 -277 20 -10 40
-22 43 -27 4 -6 10 -8 15 -5 5 3 11 1 15 -5 3 -6 24 -19 45 -30 l39 -20 -16
-30 c-9 -20 -12 -41 -8 -58 4 -15 9 -49 11 -77 2 -27 7 -66 10 -85 4 -19 8
-57 11 -85 29 -362 34 -482 38 -905 4 -506 12 -816 22 -865 4 -16 7 -127 7
-247 1 -197 3 -218 20 -237 11 -12 22 -21 27 -21 4 0 10 42 13 93 3 50 10 171
16 267 15 229 20 990 7 990 -5 0 -6 8 -2 18 8 19 16 397 15 737 0 225 -14 518
-25 546 -3 8 -43 32 -88 53 -89 43 -319 182 -366 222 -16 13 -31 24 -34 24 -3
0 -69 45 -145 100 -154 111 -331 259 -493 414 -58 56 -130 122 -160 148 -30
26 -74 65 -99 86 -25 22 -56 49 -70 60 -14 12 -45 38 -70 59 -25 21 -69 56
-98 78 -29 21 -52 43 -52 47 0 4 -6 8 -13 8 -7 0 -33 21 -57 46 -40 40 -87 74
-105 74 -8 0 3 -85 19 -150 8 -30 22 -84 31 -120 9 -36 20 -73 26 -82 5 -10 9
-25 9 -33 0 -8 4 -23 9 -33 33 -65 85 -214 97 -277 4 -22 18 -63 31 -92 12
-30 23 -64 23 -76 1 -12 12 -40 25 -62 72 -115 79 -168 37 -251 -17 -33 -51
-79 -76 -102 l-46 -43 -73 3 -72 3 -22 45 c-12 25 -26 50 -31 55 -4 6 -19 26
-32 45 -14 19 -33 41 -42 48 -10 7 -18 16 -18 20 0 26 -593 620 -841 842 -46
41 -100 91 -120 110 -79 76 -145 136 -156 144 -9 5 -13 -1 -13 -22z m1010
-982 c0 -5 -4 -10 -10 -10 -5 0 -10 5 -10 10 0 6 5 10 10 10 6 0 10 -4 10 -10z"/>
<path d="M5767 10160 c-24 -28 -57 -118 -57 -155 0 -9 -9 -37 -19 -63 -131
-324 -237 -629 -311 -902 -17 -63 -35 -126 -40 -140 -4 -14 -18 -63 -30 -110
-25 -97 -45 -161 -73 -240 -10 -30 -21 -71 -23 -90 -4 -34 -14 -93 -36 -195
-6 -27 -18 -74 -28 -103 l-17 -54 -8 38 c-11 61 -31 89 -77 109 -24 11 -61 33
-83 51 -22 17 -62 44 -90 58 -27 15 -66 36 -85 47 -56 30 -200 95 -265 119
-152 57 -381 132 -480 158 -38 11 -117 32 -175 49 -531 152 -1042 172 -1745
68 -136 -21 -214 -41 -324 -86 -140 -57 -181 -104 -181 -205 0 -43 6 -68 25
-100 23 -40 119 -125 189 -169 18 -11 46 -30 62 -43 106 -83 488 -295 714
-395 241 -107 513 -194 724 -233 l38 -7 -31 -24 c-18 -14 -45 -48 -61 -77 -39
-67 -39 -121 -2 -201 27 -55 34 -62 88 -86 60 -27 119 -43 216 -59 63 -11 129
-24 223 -44 39 -9 109 -16 158 -16 86 0 87 0 87 -25 0 -31 25 -127 41 -157 54
-101 126 -179 206 -224 54 -30 70 -34 132 -34 184 0 302 134 409 465 22 67 46
134 55 150 17 35 37 115 67 274 27 143 94 390 110 405 10 8 10 6 2 -10 -6 -12
-9 -23 -7 -26 3 -2 -7 -54 -20 -114 -14 -60 -35 -152 -46 -204 -11 -52 -22
-103 -24 -114 -2 -10 -7 -59 -10 -110 -3 -50 -8 -111 -11 -136 -3 -25 -7 -92
-9 -150 -7 -182 -15 -331 -25 -455 -5 -66 -12 -172 -15 -235 -2 -63 -8 -128
-13 -145 -5 -16 -5 -41 -1 -55 15 -48 39 -168 39 -193 0 -14 9 -56 20 -93 25
-84 35 -124 49 -189 35 -162 73 -251 122 -285 26 -19 39 -22 85 -17 65 7 125
38 148 79 22 36 15 105 -15 156 -22 38 -26 154 -8 232 21 96 158 416 203 474
13 17 33 50 45 74 l22 43 30 -25 c17 -15 34 -26 39 -26 4 0 45 -34 91 -76 46
-41 108 -93 137 -115 28 -21 76 -57 105 -79 30 -22 57 -40 62 -40 4 0 35 -17
69 -38 34 -22 79 -47 101 -57 22 -10 51 -27 64 -37 13 -10 32 -18 42 -18 10 0
40 -16 66 -36 26 -20 56 -40 68 -45 11 -6 41 -22 67 -37 106 -62 162 -92 171
-92 5 0 21 -9 36 -19 14 -10 45 -24 68 -30 23 -6 45 -16 48 -21 14 -23 101
-51 145 -46 50 5 151 48 172 73 20 25 15 146 -10 226 -12 38 -24 97 -27 131
-2 34 -11 78 -19 98 -9 20 -13 50 -10 69 7 47 -21 225 -41 255 -8 13 -24 24
-35 24 -47 0 -69 -100 -51 -235 10 -77 52 -291 66 -336 7 -21 5 -21 -41 -14
-27 4 -71 9 -99 10 -27 1 -90 15 -140 30 -49 15 -97 28 -105 28 -8 0 -19 3
-25 7 -5 4 -35 15 -65 24 -50 16 -113 40 -180 70 -14 6 -47 25 -75 42 -27 17
-57 34 -65 37 -8 4 -48 28 -88 54 -40 27 -131 85 -203 131 -71 46 -161 112
-199 148 -39 35 -75 64 -81 64 -6 0 -24 15 -40 33 -15 17 -38 33 -51 34 -13 1
-35 5 -49 8 -34 9 -61 -17 -53 -51 4 -17 -4 -45 -30 -93 -20 -38 -37 -77 -39
-87 -5 -26 -13 -44 -64 -153 -86 -184 -131 -305 -149 -399 l-7 -33 -14 28
c-71 131 -94 185 -153 353 -26 75 -31 124 -36 375 -4 229 1 361 19 445 6 28
25 296 32 445 7 151 81 436 216 826 10 31 19 64 19 73 0 10 20 74 44 144 73
211 104 317 157 537 28 116 67 264 85 330 38 132 37 129 55 200 6 28 15 55 19
60 4 6 35 93 68 195 63 195 80 235 118 287 28 36 31 78 8 87 -31 12 -53 5 -77
-24z m-172 -598 c-14 -46 -35 -78 -35 -54 0 14 42 113 46 109 2 -2 -3 -27 -11
-55z m-170 -669 c-57 -204 -118 -390 -123 -375 -8 25 22 140 90 348 40 122 74
215 76 208 2 -7 -18 -89 -43 -181z"/>
<path d="M14153 10183 c-21 -8 -15 -52 11 -86 38 -52 55 -92 118 -287 33 -102
64 -189 68 -195 4 -5 13 -32 19 -60 18 -71 17 -68 55 -200 18 -66 57 -214 85
-330 53 -220 84 -326 157 -537 24 -70 44 -134 44 -144 0 -9 9 -42 19 -73 135
-390 209 -675 216 -826 7 -149 26 -417 32 -445 18 -84 23 -216 19 -445 -5
-251 -10 -300 -36 -375 -59 -168 -82 -222 -153 -353 l-14 -28 -7 33 c-18 94
-63 215 -149 399 -51 109 -59 127 -64 153 -2 10 -19 49 -39 87 -26 48 -34 76
-30 93 8 34 -19 60 -53 51 -14 -3 -36 -7 -49 -8 -13 -1 -36 -17 -51 -34 -16
-18 -34 -33 -40 -33 -6 0 -42 -29 -81 -64 -38 -36 -128 -102 -199 -148 -72
-46 -163 -104 -203 -131 -40 -26 -80 -50 -88 -54 -8 -3 -37 -20 -65 -37 -27
-17 -61 -36 -75 -42 -67 -30 -130 -54 -180 -70 -30 -9 -59 -20 -65 -24 -5 -4
-17 -7 -25 -7 -8 0 -55 -13 -105 -28 -49 -15 -112 -29 -140 -30 -27 -1 -72 -6
-99 -10 -46 -7 -48 -7 -41 14 14 45 56 259 66 336 18 135 -4 235 -51 235 -32
0 -50 -42 -66 -150 -12 -79 -13 -108 -4 -130 9 -22 9 -34 -4 -58 -8 -16 -18
-60 -21 -97 -6 -79 -21 -141 -42 -175 -21 -32 -24 -170 -5 -193 21 -25 122
-68 172 -73 44 -5 131 23 145 46 3 5 25 15 48 21 23 6 54 20 68 30 15 10 31
19 36 19 9 0 65 30 171 92 26 15 56 31 67 37 12 5 42 25 68 45 26 20 56 36 66
36 10 0 29 8 42 18 13 10 42 27 64 37 22 10 67 35 101 57 34 21 65 38 69 38 5
0 33 19 64 42 31 23 79 59 106 79 28 21 88 72 134 113 46 42 87 76 91 76 5 0
22 11 39 26 l30 25 22 -43 c12 -24 32 -57 45 -74 45 -58 182 -378 203 -474 18
-78 14 -194 -8 -232 -30 -51 -37 -120 -15 -156 23 -41 83 -72 148 -79 46 -5
59 -2 85 17 49 34 87 123 122 285 14 65 24 105 49 189 11 37 20 79 20 93 0 25
24 145 39 193 4 14 4 39 -1 55 -5 17 -11 82 -13 145 -3 63 -10 169 -15 235
-10 124 -18 273 -25 455 -2 58 -6 125 -9 150 -3 25 -8 86 -11 136 -3 51 -8
100 -10 110 -2 11 -13 62 -24 114 -11 52 -32 144 -46 204 -13 60 -23 112 -20
114 2 3 -1 14 -7 26 -8 16 -8 18 2 10 16 -15 83 -262 110 -405 30 -159 50
-239 67 -274 9 -16 33 -83 55 -150 107 -331 225 -465 409 -465 62 0 78 4 132
34 80 45 152 123 206 224 16 30 41 126 41 157 0 25 1 25 88 25 48 0 119 7 157
16 94 20 160 33 223 44 97 16 156 32 216 59 54 24 61 31 88 86 37 80 37 134
-2 201 -16 29 -43 63 -61 77 l-31 24 38 7 c211 39 483 126 724 233 226 100
608 312 714 395 16 13 44 32 62 43 70 44 166 129 189 169 19 32 25 57 25 100
0 101 -41 148 -181 205 -110 45 -188 65 -324 86 -703 104 -1214 84 -1745 -68
-58 -17 -136 -38 -175 -49 -99 -26 -328 -101 -480 -158 -65 -24 -209 -89 -265
-119 -19 -11 -57 -32 -85 -47 -27 -14 -68 -41 -90 -58 -22 -18 -59 -40 -83
-51 -46 -20 -66 -48 -77 -109 l-8 -38 -17 54 c-10 29 -22 76 -28 103 -22 102
-32 161 -36 195 -2 19 -13 60 -23 90 -28 79 -48 143 -73 240 -12 47 -26 96
-30 110 -5 14 -23 77 -40 140 -74 273 -180 578 -311 902 -10 26 -19 54 -19 63
0 37 -33 127 -57 155 -23 28 -50 36 -80 23z m284 -677 c-6 -13 -32 46 -40 89
-4 20 2 12 19 -24 14 -29 23 -59 21 -65z m253 -919 c7 -37 10 -70 8 -72 -11
-11 -168 514 -168 560 1 33 148 -414 160 -488z"/>
<path d="M9725 8361 c-33 -4 -80 -15 -105 -25 -25 -10 -63 -22 -85 -26 -22 -5
-69 -16 -105 -26 -36 -9 -90 -22 -120 -30 -264 -67 -438 -147 -577 -266 -79
-68 -118 -118 -188 -248 -82 -150 -110 -245 -156 -525 -11 -66 -29 -340 -32
-470 -1 -67 19 -175 40 -219 63 -124 204 -230 362 -271 34 -9 76 -22 94 -29
48 -21 245 -84 307 -98 l55 -13 -1 -55 c-1 -30 -5 -100 -9 -156 -7 -89 -5
-105 13 -146 45 -103 151 -176 237 -165 23 4 84 1 136 -4 147 -17 584 -18 760
-4 86 8 174 11 196 8 84 -11 191 64 235 165 18 41 20 57 13 146 -4 56 -8 126
-9 156 l-1 55 55 13 c62 14 259 77 307 98 18 7 60 20 94 29 158 41 299 147
362 271 21 44 41 152 40 219 -3 130 -21 404 -32 470 -46 280 -74 375 -156 525
-70 130 -109 180 -188 248 -139 119 -313 199 -577 266 -30 8 -84 21 -120 30
-36 10 -83 21 -105 25 -22 5 -65 19 -95 30 -46 18 -77 22 -195 23 -77 0 -153
0 -170 0 -16 -1 -73 0 -125 2 -52 2 -122 0 -155 -3z"/>
</g>
</svg>
