<?xml version="1.0" encoding="utf-8"?>
<svg viewBox="0 0 500 500" width="500" height="500" xmlns="http://www.w3.org/2000/svg">
  <path d="M 0 0 L 500 0 L 500 500 L 0 500 Z M 60.606 166.667 L 166.667 166.667 L 166.667 60.606 L 60.606 60.606 Z M 151.515 151.515 L 75.758 151.515 L 75.758 75.758 L 151.515 75.758 Z M 196.97 75.758 L 227.273 75.758 L 227.273 90.909 L 196.97 90.909 L 196.97 106.061 L 212.121 106.061 L 212.121 136.364 L 196.97 136.364 L 196.97 151.515 L 181.818 151.515 L 181.818 166.667 L 196.97 166.667 L 196.97 151.516 L 212.121 151.516 L 212.121 166.667 L 196.97 166.667 L 196.97 196.97 L 212.121 196.97 L 212.121 212.121 L 196.97 212.121 L 196.97 227.273 L 212.121 227.273 L 212.121 242.424 L 196.97 242.424 L 196.97 227.273 L 166.667 227.273 L 166.667 242.424 L 151.516 242.424 L 151.516 227.273 L 166.667 227.273 L 166.667 212.121 L 151.516 212.121 L 151.516 196.97 L 181.819 196.97 L 181.819 181.818 L 136.364 181.818 L 136.364 196.97 L 121.212 196.97 L 121.212 212.122 L 151.515 212.122 L 151.515 227.273 L 136.364 227.273 L 136.364 257.576 L 196.97 257.576 L 196.97 287.879 L 181.818 287.879 L 181.818 363.637 L 196.97 363.637 L 196.97 333.334 L 212.122 333.334 L 212.122 303.031 L 227.273 303.031 L 227.273 318.182 L 242.424 318.182 L 242.424 333.334 L 227.273 333.334 L 227.273 348.485 L 212.121 348.485 L 212.121 363.637 L 196.97 363.637 L 196.97 393.94 L 212.121 393.94 L 212.121 409.092 L 227.273 409.092 L 227.273 393.94 L 212.122 393.94 L 212.122 363.637 L 227.273 363.637 L 227.273 348.486 L 257.576 348.486 L 257.576 333.334 L 272.728 333.334 L 272.728 303.031 L 287.879 303.031 L 287.879 333.334 L 303.03 333.334 L 303.03 348.485 L 272.727 348.485 L 272.727 363.637 L 257.576 363.637 L 257.576 378.788 L 227.273 378.788 L 227.273 393.94 L 242.424 393.94 L 242.424 424.243 L 227.273 424.243 L 227.273 439.395 L 242.425 439.395 L 242.425 424.243 L 257.576 424.243 L 257.576 378.789 L 272.728 378.789 L 272.728 363.637 L 287.879 363.637 L 287.879 393.94 L 272.727 393.94 L 272.727 409.092 L 287.879 409.092 L 287.879 424.243 L 303.03 424.243 L 303.03 439.395 L 318.182 439.395 L 318.182 409.091 L 303.031 409.091 L 303.031 378.789 L 318.182 378.789 L 318.182 393.94 L 348.485 393.94 L 348.485 378.789 L 378.788 378.789 L 378.788 303.031 L 393.939 303.031 L 393.939 318.182 L 409.091 318.182 L 409.091 287.879 L 393.94 287.879 L 393.94 272.727 L 363.637 272.727 L 363.637 242.425 L 393.94 242.425 L 393.94 212.122 L 409.091 212.122 L 409.091 227.273 L 424.242 227.273 L 424.242 257.576 L 409.091 257.576 L 409.091 287.879 L 424.242 287.879 L 424.242 303.031 L 439.394 303.031 L 439.394 272.727 L 424.243 272.727 L 424.243 257.576 L 439.394 257.576 L 439.394 212.121 L 424.243 212.121 L 424.243 196.97 L 393.94 196.97 L 393.94 181.818 L 363.636 181.818 L 363.636 196.97 L 348.485 196.97 L 348.485 212.122 L 363.636 212.122 L 363.636 227.273 L 348.485 227.273 L 348.485 242.424 L 333.334 242.424 L 333.334 212.121 L 303.031 212.121 L 303.031 196.97 L 318.182 196.97 L 318.182 151.515 L 303.03 151.515 L 303.03 181.818 L 257.576 181.818 L 257.576 151.516 L 272.727 151.516 L 272.727 166.667 L 287.879 166.667 L 287.879 136.364 L 272.728 136.364 L 272.728 106.061 L 257.576 106.061 L 257.576 121.212 L 242.425 121.212 L 242.425 90.91 L 287.879 90.91 L 287.879 106.061 L 303.03 106.061 L 303.03 136.364 L 318.182 136.364 L 318.182 60.606 L 303.03 60.606 L 303.03 90.909 L 287.879 90.909 L 287.879 60.606 L 272.727 60.606 L 272.727 75.758 L 242.425 75.758 L 242.425 60.606 L 196.97 60.606 Z M 363.636 363.637 L 318.182 363.637 L 318.182 318.182 L 363.636 318.182 Z M 378.788 303.03 L 363.637 303.03 L 363.637 287.879 L 378.788 287.879 Z M 348.485 303.03 L 318.182 303.03 L 318.182 287.879 L 348.485 287.879 Z M 272.727 303.03 L 257.576 303.03 L 257.576 242.424 L 242.425 242.424 L 242.425 227.273 L 257.576 227.273 L 257.576 212.121 L 227.273 212.121 L 227.273 181.818 L 212.122 181.818 L 212.122 166.667 L 227.273 166.667 L 227.273 121.213 L 242.424 121.213 L 242.424 136.364 L 257.576 136.364 L 257.576 151.515 L 242.424 151.515 L 242.424 196.97 L 272.727 196.97 L 272.727 242.425 L 287.879 242.425 L 287.879 227.273 L 318.182 227.273 L 318.182 242.424 L 303.03 242.424 L 303.03 257.576 L 272.727 257.576 Z M 242.424 287.879 L 212.122 287.879 L 212.122 272.728 L 227.273 272.728 L 227.273 242.425 L 242.424 242.425 Z M 348.485 272.727 L 333.334 272.727 L 333.334 257.576 L 348.485 257.576 Z M 333.333 257.576 L 318.182 257.576 L 318.182 242.425 L 333.333 242.425 Z M 227.273 227.273 L 212.122 227.273 L 212.122 212.122 L 227.273 212.122 Z M 333.333 166.667 L 439.394 166.667 L 439.394 60.606 L 333.333 60.606 Z M 424.242 151.515 L 348.485 151.515 L 348.485 75.758 L 424.242 75.758 Z M 90.909 136.364 L 136.364 136.364 L 136.364 90.909 L 90.909 90.909 Z M 363.636 136.364 L 409.091 136.364 L 409.091 90.909 L 363.636 90.909 Z M 181.818 136.364 L 196.97 136.364 L 196.97 106.061 L 181.818 106.061 Z M 60.606 318.182 L 75.758 318.182 L 75.758 272.728 L 90.909 272.728 L 90.909 287.879 L 106.061 287.879 L 106.061 318.182 L 121.213 318.182 L 121.213 303.031 L 136.364 303.031 L 136.364 318.182 L 166.667 318.182 L 166.667 303.03 L 136.364 303.03 L 136.364 287.879 L 166.667 287.879 L 166.667 272.727 L 106.061 272.727 L 106.061 242.425 L 121.213 242.425 L 121.213 227.273 L 106.061 227.273 L 106.061 242.424 L 90.91 242.424 L 90.91 227.273 L 106.061 227.273 L 106.061 196.97 L 90.91 196.97 L 90.91 181.818 L 60.606 181.818 Z M 90.909 257.576 L 75.758 257.576 L 75.758 242.425 L 90.909 242.425 Z M 90.909 227.273 L 75.758 227.273 L 75.758 196.97 L 90.909 196.97 Z M 60.606 439.395 L 166.667 439.395 L 166.667 333.334 L 60.606 333.334 Z M 151.515 424.243 L 75.758 424.243 L 75.758 348.486 L 151.515 348.486 Z M 333.333 348.486 L 348.485 348.486 L 348.485 333.334 L 333.333 333.334 Z M 424.242 348.486 L 439.394 348.486 L 439.394 333.334 L 424.242 333.334 Z M 90.909 409.092 L 136.364 409.092 L 136.364 363.637 L 90.909 363.637 Z M 393.939 378.789 L 409.091 378.789 L 409.091 393.94 L 424.242 393.94 L 424.242 439.395 L 439.394 439.395 L 439.394 378.788 L 409.091 378.788 L 409.091 363.637 L 393.939 363.637 Z M 378.788 409.091 L 333.333 409.091 L 333.333 439.395 L 348.485 439.395 L 348.485 424.243 L 378.788 424.243 L 378.788 409.092 L 409.091 409.092 L 409.091 393.94 L 378.788 393.94 Z M 181.818 439.395 L 196.97 439.395 L 196.97 409.091 L 181.818 409.091 Z M 272.727 439.395 L 287.879 439.395 L 287.879 424.243 L 272.727 424.243 Z M 378.788 439.395 L 393.94 439.395 L 393.94 424.243 L 378.788 424.243 Z" style="fill: rgb(255, 255, 255);"/>
</svg>