<?xml version="1.0" encoding="utf-8"?>
<svg xmlns="http://www.w3.org/2000/svg" viewBox="0 0 500 500" xmlns:bx="https://boxy-svg.com" width="500px" height="500px"><defs><linearGradient gradientUnits="userSpaceOnUse" x1="250" y1="-5" x2="250" y2="505" id="gradient-0"><stop offset="0" style="stop-opacity: 0; stop-color: rgb(77, 77, 77);"/><stop offset="1" style="stop-color: rgb(77, 77, 77); stop-opacity: 0.5;"/></linearGradient><filter id="drop-shadow-filter-0" bx:preset="drop-shadow 1 7 7 20 0.85 rgba(0,0,0,0.3)" color-interpolation-filters="sRGB" x="-50%" y="-50%" width="200%" height="200%"><feGaussianBlur in="SourceAlpha" stdDeviation="20"/><feOffset dx="7" dy="7"/><feComponentTransfer result="offsetblur"><feFuncA id="spread-ctrl" type="linear" slope="1.7"/></feComponentTransfer><feFlood flood-color="rgba(0,0,0,0.3)"/><feComposite in2="offsetblur" operator="in"/><feMerge><feMergeNode/><feMergeNode in="SourceGraphic"/></feMerge></filter><bx:export><bx:file format="jpeg" path="missing512.jpeg" width="512" height="512"/><bx:file format="jpeg" path="missing16.jpeg" width="16" height="16"/><bx:file format="svg" path="Missing.svg"/></bx:export><filter id="filter-2" bx:preset="drop-shadow 1 7 7 20 0.85 rgba(0,0,0,0.3)" color-interpolation-filters="sRGB" x="-50%" y="-50%" width="200%" height="200%"><feGaussianBlur in="SourceAlpha" stdDeviation="20"/><feOffset dx="7" dy="7"/><feComponentTransfer result="offsetblur"><feFuncA id="feFuncA-2" type="linear" slope="1.7"/></feComponentTransfer><feFlood flood-color="rgba(0,0,0,0.3)"/><feComposite in2="offsetblur" operator="in"/><feMerge><feMergeNode/><feMergeNode in="SourceGraphic"/></feMerge></filter><filter id="grayscale-filter-0" bx:preset="grayscale 1 1" color-interpolation-filters="sRGB" x="-50%" y="-50%" width="200%" height="200%"><feColorMatrix type="matrix" values="0.213 0.715 0.072 0 0 0.213 0.715 0.072 0 0 0.213 0.715 0.072 0 0 0 0 0 1 0"/></filter></defs><rect width="600" height="600" style="fill: rgb(135, 108, 166); filter: url(&quot;#grayscale-filter-0&quot;);" y="-50" x="-50"><title>BG</title></rect><rect x="-5" y="-5" width="510" height="510" style="fill: url(&quot;#gradient-0&quot;); visibility: hidden;"><title>BG Gradient</title></rect><path d="M 395.993 322.514 C 395.993 367.015 375.756 372.888 348.114 377.945 C 319.549 383.169 294.15 376.222 294.15 352.012 C 294.15 327.802 319.41 304.866 375.724 294.566 L 375.724 151.688 L 205.849 182.761 L 205.849 357.291 C 205.849 401.792 185.612 407.665 157.971 412.721 C 129.405 417.946 104.006 410.998 104.006 386.788 C 104.006 362.579 129.266 339.643 185.58 329.343 L 185.58 124.129 L 395.16 85.793 L 395.16 85.797 L 395.993 85.645 L 395.993 322.514 Z" style="stroke-linejoin: round; stroke-linecap: round; stroke: rgb(235, 235, 235); filter: url(&quot;#drop-shadow-filter-0&quot;); stroke-width: 12px; fill: rgb(235, 235, 235);"><title>Missing Note</title></path><path d="M 395.99 322.514 C 395.99 367.015 375.75 372.888 348.11 377.945 C 319.55 383.169 294.15 376.222 294.15 352.012 C 294.15 327.802 319.41 304.866 375.72 294.566 L 375.72 151.688 L 205.85 182.761 L 205.85 357.291 C 205.85 401.792 185.61 407.665 157.97 412.721 C 129.4 417.946 104.01 410.998 104.01 386.788 C 104.01 362.579 129.27 339.643 185.58 329.343 L 185.58 124.129 L 395.16 85.793 L 395.16 85.797 L 395.99 85.645 L 395.99 322.514 Z" style="stroke-linejoin: round; stroke-linecap: round; stroke: rgb(235, 235, 235); filter: url(&quot;#filter-2&quot;); fill: none; stroke-dasharray: 30; stroke-dashoffset: -33px; stroke-width: 12px; visibility: hidden;"><title>Music Note Missing</title></path></svg>